<?xml version="1.0" encoding="UTF-8" standalone="no"?>
<!DOCTYPE svg PUBLIC "-//W3C//DTD SVG 1.1//EN"
 "http://www.w3.org/Graphics/SVG/1.1/DTD/svg11.dtd">
<!-- Generated by graphviz version 2.43.0 (0)
 -->
<!-- Title: hw10_program_optimization.test Pages: 1 -->
<svg width="100%" height="100%" xmlns="http://www.w3.org/2000/svg" xmlns:xlink="http://www.w3.org/1999/xlink">
<script type="text/ecmascript"><![CDATA[
/**
 *  SVGPan library 1.2.2
 * ======================
 *
 * Given an unique existing element with id "viewport" (or when missing, the
 * first g-element), including the library into any SVG adds the following
 * capabilities:
 *
 *  - Mouse panning
 *  - Mouse zooming (using the wheel)
 *  - Object dragging
 *
 * You can configure the behaviour of the pan/zoom/drag with the variables
 * listed in the CONFIGURATION section of this file.
 *
 * Known issues:
 *
 *  - Zooming (while panning) on Safari has still some issues
 *
 * Releases:
 *
 * 1.2.2, Tue Aug 30 17:21:56 CEST 2011, Andrea Leofreddi
 *	- Fixed viewBox on root tag (#7)
 *	- Improved zoom speed (#2)
 *
 * 1.2.1, Mon Jul  4 00:33:18 CEST 2011, Andrea Leofreddi
 *	- Fixed a regression with mouse wheel (now working on Firefox 5)
 *	- Working with viewBox attribute (#4)
 *	- Added "use strict;" and fixed resulting warnings (#5)
 *	- Added configuration variables, dragging is disabled by default (#3)
 *
 * 1.2, Sat Mar 20 08:42:50 GMT 2010, Zeng Xiaohui
 *	Fixed a bug with browser mouse handler interaction
 *
 * 1.1, Wed Feb  3 17:39:33 GMT 2010, Zeng Xiaohui
 *	Updated the zoom code to support the mouse wheel on Safari/Chrome
 *
 * 1.0, Andrea Leofreddi
 *	First release
 *
 * This code is licensed under the following BSD license:
 *
 * Copyright 2009-2017 Andrea Leofreddi <a.leofreddi@vleo.net>. All rights reserved.
 *
 * Redistribution and use in source and binary forms, with or without modification, are
 * permitted provided that the following conditions are met:
 *
 *    1. Redistributions of source code must retain the above copyright
 *       notice, this list of conditions and the following disclaimer.
 *    2. Redistributions in binary form must reproduce the above copyright
 *       notice, this list of conditions and the following disclaimer in the
 *       documentation and/or other materials provided with the distribution.
 *    3. Neither the name of the copyright holder nor the names of its
 *       contributors may be used to endorse or promote products derived from
 *       this software without specific prior written permission.
 *
 * THIS SOFTWARE IS PROVIDED BY COPYRIGHT HOLDERS AND CONTRIBUTORS ''AS IS'' AND ANY EXPRESS
 * OR IMPLIED WARRANTIES, INCLUDING, BUT NOT LIMITED TO, THE IMPLIED WARRANTIES OF MERCHANTABILITY
 * AND FITNESS FOR A PARTICULAR PURPOSE ARE DISCLAIMED. IN NO EVENT SHALL COPYRIGHT HOLDERS OR
 * CONTRIBUTORS BE LIABLE FOR ANY DIRECT, INDIRECT, INCIDENTAL, SPECIAL, EXEMPLARY, OR
 * CONSEQUENTIAL DAMAGES (INCLUDING, BUT NOT LIMITED TO, PROCUREMENT OF SUBSTITUTE GOODS OR
 * SERVICES; LOSS OF USE, DATA, OR PROFITS; OR BUSINESS INTERRUPTION) HOWEVER CAUSED AND ON
 * ANY THEORY OF LIABILITY, WHETHER IN CONTRACT, STRICT LIABILITY, OR TORT (INCLUDING
 * NEGLIGENCE OR OTHERWISE) ARISING IN ANY WAY OUT OF THE USE OF THIS SOFTWARE, EVEN IF
 * ADVISED OF THE POSSIBILITY OF SUCH DAMAGE.
 *
 * The views and conclusions contained in the software and documentation are those of the
 * authors and should not be interpreted as representing official policies, either expressed
 * or implied, of Andrea Leofreddi.
 */

"use strict";

/// CONFIGURATION
/// ====>

var enablePan = 1; // 1 or 0: enable or disable panning (default enabled)
var enableZoom = 1; // 1 or 0: enable or disable zooming (default enabled)
var enableDrag = 0; // 1 or 0: enable or disable dragging (default disabled)
var zoomScale = 0.2; // Zoom sensitivity

/// <====
/// END OF CONFIGURATION

var root = document.documentElement;

var state = 'none', svgRoot = null, stateTarget, stateOrigin, stateTf;

setupHandlers(root);

/**
 * Register handlers
 */
function setupHandlers(root){
	setAttributes(root, {
		"onmouseup" : "handleMouseUp(evt)",
		"onmousedown" : "handleMouseDown(evt)",
		"onmousemove" : "handleMouseMove(evt)",
		//"onmouseout" : "handleMouseUp(evt)", // Decomment this to stop the pan functionality when dragging out of the SVG element
	});

	if(navigator.userAgent.toLowerCase().indexOf('webkit') >= 0)
		window.addEventListener('mousewheel', handleMouseWheel, false); // Chrome/Safari
	else
		window.addEventListener('DOMMouseScroll', handleMouseWheel, false); // Others
}

/**
 * Retrieves the root element for SVG manipulation. The element is then cached into the svgRoot global variable.
 */
function getRoot(root) {
	if(svgRoot == null) {
		var r = root.getElementById("viewport") ? root.getElementById("viewport") : root.documentElement, t = r;

		while(t != root) {
			if(t.getAttribute("viewBox")) {
				setCTM(r, t.getCTM());

				t.removeAttribute("viewBox");
			}

			t = t.parentNode;
		}

		svgRoot = r;
	}

	return svgRoot;
}

/**
 * Instance an SVGPoint object with given event coordinates.
 */
function getEventPoint(evt) {
	var p = root.createSVGPoint();

	p.x = evt.clientX;
	p.y = evt.clientY;

	return p;
}

/**
 * Sets the current transform matrix of an element.
 */
function setCTM(element, matrix) {
	var s = "matrix(" + matrix.a + "," + matrix.b + "," + matrix.c + "," + matrix.d + "," + matrix.e + "," + matrix.f + ")";

	element.setAttribute("transform", s);
}

/**
 * Dumps a matrix to a string (useful for debug).
 */
function dumpMatrix(matrix) {
	var s = "[ " + matrix.a + ", " + matrix.c + ", " + matrix.e + "\n  " + matrix.b + ", " + matrix.d + ", " + matrix.f + "\n  0, 0, 1 ]";

	return s;
}

/**
 * Sets attributes of an element.
 */
function setAttributes(element, attributes){
	for (var i in attributes)
		element.setAttributeNS(null, i, attributes[i]);
}

/**
 * Handle mouse wheel event.
 */
function handleMouseWheel(evt) {
	if(!enableZoom)
		return;

	if(evt.preventDefault)
		evt.preventDefault();

	evt.returnValue = false;

	var svgDoc = evt.target.ownerDocument;

	var delta;

	if(evt.wheelDelta)
		delta = evt.wheelDelta / 360; // Chrome/Safari
	else
		delta = evt.detail / -9; // Mozilla

	var z = Math.pow(1 + zoomScale, delta);

	var g = getRoot(svgDoc);
	
	var p = getEventPoint(evt);

	p = p.matrixTransform(g.getCTM().inverse());

	// Compute new scale matrix in current mouse position
	var k = root.createSVGMatrix().translate(p.x, p.y).scale(z).translate(-p.x, -p.y);

        setCTM(g, g.getCTM().multiply(k));

	if(typeof(stateTf) == "undefined")
		stateTf = g.getCTM().inverse();

	stateTf = stateTf.multiply(k.inverse());
}

/**
 * Handle mouse move event.
 */
function handleMouseMove(evt) {
	if(evt.preventDefault)
		evt.preventDefault();

	evt.returnValue = false;

	var svgDoc = evt.target.ownerDocument;

	var g = getRoot(svgDoc);

	if(state == 'pan' && enablePan) {
		// Pan mode
		var p = getEventPoint(evt).matrixTransform(stateTf);

		setCTM(g, stateTf.inverse().translate(p.x - stateOrigin.x, p.y - stateOrigin.y));
	} else if(state == 'drag' && enableDrag) {
		// Drag mode
		var p = getEventPoint(evt).matrixTransform(g.getCTM().inverse());

		setCTM(stateTarget, root.createSVGMatrix().translate(p.x - stateOrigin.x, p.y - stateOrigin.y).multiply(g.getCTM().inverse()).multiply(stateTarget.getCTM()));

		stateOrigin = p;
	}
}

/**
 * Handle click event.
 */
function handleMouseDown(evt) {
	if(evt.preventDefault)
		evt.preventDefault();

	evt.returnValue = false;

	var svgDoc = evt.target.ownerDocument;

	var g = getRoot(svgDoc);

	if(
		evt.target.tagName == "svg"
		|| !enableDrag // Pan anyway when drag is disabled and the user clicked on an element
	) {
		// Pan mode
		state = 'pan';

		stateTf = g.getCTM().inverse();

		stateOrigin = getEventPoint(evt).matrixTransform(stateTf);
	} else {
		// Drag mode
		state = 'drag';

		stateTarget = evt.target;

		stateTf = g.getCTM().inverse();

		stateOrigin = getEventPoint(evt).matrixTransform(stateTf);
	}
}

/**
 * Handle mouse button release event.
 */
function handleMouseUp(evt) {
	if(evt.preventDefault)
		evt.preventDefault();

	evt.returnValue = false;

	var svgDoc = evt.target.ownerDocument;

	if(state == 'pan' || state == 'drag') {
		// Quit pan mode
		state = '';
	}
}
]]></script><g id="viewport" transform="scale(0.5,0.5) translate(0,0)"><g id="graph0" class="graph" transform="scale(1 1) rotate(0) translate(4 1062)">
<title>hw10_program_optimization.test</title>
<polygon fill="white" stroke="transparent" points="-4,4 -4,-1062 1545,-1062 1545,4 -4,4"/>
<g id="clust1" class="cluster">
<title>cluster_L</title>
<polygon fill="none" stroke="black" points="8,-899 8,-1050 610,-1050 610,-899 8,-899"/>
</g>
<!-- File: hw10_program_optimization.test -->
<g id="node1" class="node">
<title>File: hw10_program_optimization.test</title>
<g id="a_node1"><a xlink:title="hw10_program_optimization.test">
<polygon fill="#f8f8f8" stroke="black" points="602.5,-1042 15.5,-1042 15.5,-907 602.5,-907 602.5,-1042"/>
<text text-anchor="start" x="23.5" y="-1025.2" font-family="Times,serif" font-size="16.00">File: hw10_program_optimization.test</text>
<text text-anchor="start" x="23.5" y="-1007.2" font-family="Times,serif" font-size="16.00">Type: alloc_space</text>
<text text-anchor="start" x="23.5" y="-989.2" font-family="Times,serif" font-size="16.00">Time: May 7, 2023 at 11:17pm (MSK)</text>
<text text-anchor="start" x="23.5" y="-971.2" font-family="Times,serif" font-size="16.00">Showing nodes accounting for 624.08MB, 98.89% of 631.08MB total</text>
<text text-anchor="start" x="23.5" y="-953.2" font-family="Times,serif" font-size="16.00">Dropped 55 nodes (cum &lt;= 3.16MB)</text>
<text text-anchor="start" x="23.5" y="-916.2" font-family="Times,serif" font-size="16.00">See https://git.io/JfYMW for how to read the graph</text>
</a>
</g>
</g>
<!-- N1 -->
<g id="node1" class="node">
<title>N1</title>
<g id="a_node1"><a xlink:title="github.com/ice65537/otus&#45;go&#45;hw/hw10_program_optimization.parseRecords (627.08MB)">
<polygon fill="#edd5d5" stroke="#b20000" points="743,-564 613,-564 613,-528 743,-528 743,-564"/>
<text text-anchor="middle" x="678" y="-553.1" font-family="Times,serif" font-size="8.00">hw10_program_optimization</text>
<text text-anchor="middle" x="678" y="-544.1" font-family="Times,serif" font-size="8.00">parseRecords</text>
<text text-anchor="middle" x="678" y="-535.1" font-family="Times,serif" font-size="8.00">0 of 627.08MB (99.37%)</text>
</a>
</g>
</g>
<!-- N2 -->
<g id="node2" class="node">
<title>N2</title>
<g id="a_node2"><a xlink:title="bufio.(*Reader).ReadBytes (380.57MB)">
<polygon fill="#edd8d5" stroke="#b21900" points="822,-477 534,-477 534,-339 822,-339 822,-477"/>
<text text-anchor="middle" x="678" y="-453.8" font-family="Times,serif" font-size="24.00">bufio</text>
<text text-anchor="middle" x="678" y="-427.8" font-family="Times,serif" font-size="24.00">(*Reader)</text>
<text text-anchor="middle" x="678" y="-401.8" font-family="Times,serif" font-size="24.00">ReadBytes</text>
<text text-anchor="middle" x="678" y="-375.8" font-family="Times,serif" font-size="24.00">377.57MB (59.83%)</text>
<text text-anchor="middle" x="678" y="-349.8" font-family="Times,serif" font-size="24.00">of 380.57MB (60.30%)</text>
</a>
</g>
</g>
<!-- N1&#45;&gt;N2 -->
<g id="edge18" class="edge">
<title>N1&#45;&gt;N2</title>
<g id="a_edge18"><a xlink:title="github.com/ice65537/otus&#45;go&#45;hw/hw10_program_optimization.parseRecords &#45;&gt; bufio.(*Reader).ReadBytes (380.57MB)">
<path fill="none" stroke="#b21900" stroke-width="4" d="M678,-527.78C678,-517.1 678,-502.56 678,-487.3"/>
<polygon fill="#b21900" stroke="#b21900" stroke-width="4" points="681.5,-487.21 678,-477.21 674.5,-487.21 681.5,-487.21"/>
</a>
</g>
<g id="a_edge18&#45;label"><a xlink:title="github.com/ice65537/otus&#45;go&#45;hw/hw10_program_optimization.parseRecords &#45;&gt; bufio.(*Reader).ReadBytes (380.57MB)">
<text text-anchor="middle" x="717.5" y="-498.8" font-family="Times,serif" font-size="14.00"> 380.57MB</text>
</a>
</g>
</g>
<!-- N5 -->
<g id="node5" class="node">
<title>N5</title>
<g id="a_node5"><a xlink:title="github.com/buger/jsonparser.GetString (61MB)">
<polygon fill="#ede7e1" stroke="#b2875c" points="999.5,-437.5 872.5,-437.5 872.5,-378.5 999.5,-378.5 999.5,-437.5"/>
<text text-anchor="middle" x="936" y="-421.5" font-family="Times,serif" font-size="15.00">jsonparser</text>
<text text-anchor="middle" x="936" y="-404.5" font-family="Times,serif" font-size="15.00">GetString</text>
<text text-anchor="middle" x="936" y="-387.5" font-family="Times,serif" font-size="15.00">61MB (9.67%)</text>
</a>
</g>
</g>
<!-- N1&#45;&gt;N5 -->
<g id="edge22" class="edge">
<title>N1&#45;&gt;N5</title>
<g id="a_edge22"><a xlink:title="github.com/ice65537/otus&#45;go&#45;hw/hw10_program_optimization.parseRecords &#45;&gt; github.com/buger/jsonparser.GetString (61MB)">
<path fill="none" stroke="#b2875c" d="M719.52,-527.89C732.82,-522.3 747.58,-515.99 761,-510 792.41,-495.98 800.94,-493.72 831,-477 849.34,-466.8 868.8,-454.6 885.92,-443.38"/>
<polygon fill="#b2875c" stroke="#b2875c" points="888.23,-446.05 894.64,-437.61 884.37,-440.21 888.23,-446.05"/>
</a>
</g>
<g id="a_edge22&#45;label"><a xlink:title="github.com/ice65537/otus&#45;go&#45;hw/hw10_program_optimization.parseRecords &#45;&gt; github.com/buger/jsonparser.GetString (61MB)">
<text text-anchor="middle" x="819" y="-498.8" font-family="Times,serif" font-size="14.00"> 61MB</text>
</a>
</g>
</g>
<!-- N9 -->
<g id="node9" class="node">
<title>N9</title>
<g id="a_node9"><a xlink:title="github.com/ice65537/otus&#45;go&#45;hw/hw10_program_optimization.checkDomain (130.01MB)">
<polygon fill="#edded5" stroke="#b24300" points="1211,-432 1063,-432 1063,-384 1211,-384 1211,-432"/>
<text text-anchor="middle" x="1137" y="-420.8" font-family="Times,serif" font-size="9.00">hw10_program_optimization</text>
<text text-anchor="middle" x="1137" y="-410.8" font-family="Times,serif" font-size="9.00">checkDomain</text>
<text text-anchor="middle" x="1137" y="-400.8" font-family="Times,serif" font-size="9.00">0.50MB (0.08%)</text>
<text text-anchor="middle" x="1137" y="-390.8" font-family="Times,serif" font-size="9.00">of 130.01MB (20.60%)</text>
</a>
</g>
</g>
<!-- N1&#45;&gt;N9 -->
<g id="edge19" class="edge">
<title>N1&#45;&gt;N9</title>
<g id="a_edge19"><a xlink:title="github.com/ice65537/otus&#45;go&#45;hw/hw10_program_optimization.parseRecords &#45;&gt; github.com/ice65537/otus&#45;go&#45;hw/hw10_program_optimization.checkDomain (130.01MB)">
<path fill="none" stroke="#b24300" stroke-width="2" d="M743.25,-537.2C811.12,-527.81 919.72,-509.13 1009,-477 1037.66,-466.69 1067.83,-450.92 1091.68,-437.17"/>
<polygon fill="#b24300" stroke="#b24300" stroke-width="2" points="1093.63,-440.09 1100.49,-432.01 1090.09,-434.04 1093.63,-440.09"/>
</a>
</g>
<g id="a_edge19&#45;label"><a xlink:title="github.com/ice65537/otus&#45;go&#45;hw/hw10_program_optimization.parseRecords &#45;&gt; github.com/ice65537/otus&#45;go&#45;hw/hw10_program_optimization.checkDomain (130.01MB)">
<text text-anchor="middle" x="986.5" y="-498.8" font-family="Times,serif" font-size="14.00"> 130.01MB</text>
</a>
</g>
</g>
<!-- N14 -->
<g id="node14" class="node">
<title>N14</title>
<g id="a_node14"><a xlink:title="strings.ToLower (55.50MB)">
<polygon fill="#ede8e2" stroke="#b28c64" points="1365.5,-426 1260.5,-426 1260.5,-390 1365.5,-390 1365.5,-426"/>
<text text-anchor="middle" x="1313" y="-415.1" font-family="Times,serif" font-size="8.00">strings</text>
<text text-anchor="middle" x="1313" y="-406.1" font-family="Times,serif" font-size="8.00">ToLower</text>
<text text-anchor="middle" x="1313" y="-397.1" font-family="Times,serif" font-size="8.00">0 of 55.50MB (8.79%)</text>
</a>
</g>
</g>
<!-- N1&#45;&gt;N14 -->
<g id="edge23" class="edge">
<title>N1&#45;&gt;N14</title>
<g id="a_edge23"><a xlink:title="github.com/ice65537/otus&#45;go&#45;hw/hw10_program_optimization.parseRecords &#45;&gt; strings.ToLower (55.50MB)">
<path fill="none" stroke="#b28c64" d="M743.08,-541.29C867.73,-533.47 1135.33,-512.96 1220,-477 1245.06,-466.35 1269.77,-447.8 1287.42,-432.76"/>
<polygon fill="#b28c64" stroke="#b28c64" points="1289.77,-435.35 1295,-426.14 1285.17,-430.08 1289.77,-435.35"/>
</a>
</g>
<g id="a_edge23&#45;label"><a xlink:title="github.com/ice65537/otus&#45;go&#45;hw/hw10_program_optimization.parseRecords &#45;&gt; strings.ToLower (55.50MB)">
<text text-anchor="middle" x="1191" y="-498.8" font-family="Times,serif" font-size="14.00"> 55.50MB</text>
</a>
</g>
</g>
<!-- NN2_0 -->
<g id="NN2_0" class="node">
<title>NN2_0</title>
<g id="a_NN2_0"><a xlink:title="203.53MB">
<polygon fill="#f8f8f8" stroke="black" points="510,-269 460,-269 456,-265 456,-233 506,-233 510,-237 510,-269"/>
<polyline fill="none" stroke="black" points="506,-265 456,-265 "/>
<polyline fill="none" stroke="black" points="506,-265 506,-233 "/>
<polyline fill="none" stroke="black" points="506,-265 510,-269 "/>
<text text-anchor="middle" x="483" y="-249.1" font-family="Times,serif" font-size="8.00">176B</text>
</a>
</g>
</g>
<!-- N2&#45;&gt;NN2_0 -->
<g id="edge1" class="edge">
<title>N2&#45;&gt;NN2_0</title>
<g id="a_edge1"><a xlink:title="203.53MB">
<path fill="none" stroke="black" d="M533.77,-342.86C525.18,-336.18 517.14,-328.9 510,-321 499.41,-309.29 492.77,-292.95 488.72,-279.11"/>
<polygon fill="black" stroke="black" points="492.03,-277.93 486.11,-269.14 485.26,-279.7 492.03,-277.93"/>
</a>
</g>
<g id="a_edge1&#45;label"><a xlink:title="203.53MB">
<text text-anchor="middle" x="549.5" y="-302.3" font-family="Times,serif" font-size="14.00"> 203.53MB</text>
</a>
</g>
</g>
<!-- NN2_1 -->
<g id="NN2_1" class="node">
<title>NN2_1</title>
<g id="a_NN2_1"><a xlink:title="92.52MB">
<polygon fill="#f8f8f8" stroke="black" points="612,-269 562,-269 558,-265 558,-233 608,-233 612,-237 612,-269"/>
<polyline fill="none" stroke="black" points="608,-265 558,-265 "/>
<polyline fill="none" stroke="black" points="608,-265 608,-233 "/>
<polyline fill="none" stroke="black" points="608,-265 612,-269 "/>
<text text-anchor="middle" x="585" y="-249.1" font-family="Times,serif" font-size="8.00">192B</text>
</a>
</g>
</g>
<!-- N2&#45;&gt;NN2_1 -->
<g id="edge2" class="edge">
<title>N2&#45;&gt;NN2_1</title>
<g id="a_edge2"><a xlink:title="92.52MB">
<path fill="none" stroke="black" d="M615.02,-338.99C610.98,-333.11 607.24,-327.08 604,-321 597.08,-308.02 592.5,-292.29 589.57,-279.14"/>
<polygon fill="black" stroke="black" points="592.98,-278.34 587.57,-269.23 586.12,-279.73 592.98,-278.34"/>
</a>
</g>
<g id="a_edge2&#45;label"><a xlink:title="92.52MB">
<text text-anchor="middle" x="639" y="-302.3" font-family="Times,serif" font-size="14.00"> 92.52MB</text>
</a>
</g>
</g>
<!-- NN2_2 -->
<g id="NN2_2" class="node">
<title>NN2_2</title>
<g id="a_NN2_2"><a xlink:title="42.01MB">
<polygon fill="#f8f8f8" stroke="black" points="710.5,-269 649.5,-269 645.5,-265 645.5,-233 706.5,-233 710.5,-237 710.5,-269"/>
<polyline fill="none" stroke="black" points="706.5,-265 645.5,-265 "/>
<polyline fill="none" stroke="black" points="706.5,-265 706.5,-233 "/>
<polyline fill="none" stroke="black" points="706.5,-265 710.5,-269 "/>
<text text-anchor="middle" x="678" y="-249.1" font-family="Times,serif" font-size="8.00">208B..224B</text>
</a>
</g>
</g>
<!-- N2&#45;&gt;NN2_2 -->
<g id="edge3" class="edge">
<title>N2&#45;&gt;NN2_2</title>
<g id="a_edge3"><a xlink:title="42.01MB">
<path fill="none" stroke="black" d="M678,-338.56C678,-317.54 678,-295.62 678,-279.09"/>
<polygon fill="black" stroke="black" points="681.5,-279.08 678,-269.08 674.5,-279.08 681.5,-279.08"/>
</a>
</g>
<g id="a_edge3&#45;label"><a xlink:title="42.01MB">
<text text-anchor="middle" x="713" y="-302.3" font-family="Times,serif" font-size="14.00"> 42.01MB</text>
</a>
</g>
</g>
<!-- NN2_3 -->
<g id="NN2_3" class="node">
<title>NN2_3</title>
<g id="a_NN2_3"><a xlink:title="38.01MB">
<polygon fill="#f8f8f8" stroke="black" points="798,-269 748,-269 744,-265 744,-233 794,-233 798,-237 798,-269"/>
<polyline fill="none" stroke="black" points="794,-265 744,-265 "/>
<polyline fill="none" stroke="black" points="794,-265 794,-233 "/>
<polyline fill="none" stroke="black" points="794,-265 798,-269 "/>
<text text-anchor="middle" x="771" y="-249.1" font-family="Times,serif" font-size="8.00">160B</text>
</a>
</g>
</g>
<!-- N2&#45;&gt;NN2_3 -->
<g id="edge4" class="edge">
<title>N2&#45;&gt;NN2_3</title>
<g id="a_edge4"><a xlink:title="38.01MB">
<path fill="none" stroke="black" d="M738.13,-338.68C742.07,-332.88 745.75,-326.95 749,-321 756.13,-307.94 761.37,-292.2 764.94,-279.06"/>
<polygon fill="black" stroke="black" points="768.38,-279.73 767.45,-269.18 761.6,-278.01 768.38,-279.73"/>
</a>
</g>
<g id="a_edge4&#45;label"><a xlink:title="38.01MB">
<text text-anchor="middle" x="797" y="-302.3" font-family="Times,serif" font-size="14.00"> 38.01MB</text>
</a>
</g>
</g>
<!-- N3 -->
<g id="node3" class="node">
<title>N3</title>
<g id="a_node3"><a xlink:title="testing.(*B).launch (610.58MB)">
<polygon fill="#edd5d5" stroke="#b20100" points="736,-996.5 620,-996.5 620,-952.5 736,-952.5 736,-996.5"/>
<text text-anchor="middle" x="678" y="-986.1" font-family="Times,serif" font-size="8.00">testing</text>
<text text-anchor="middle" x="678" y="-977.1" font-family="Times,serif" font-size="8.00">(*B)</text>
<text text-anchor="middle" x="678" y="-968.1" font-family="Times,serif" font-size="8.00">launch</text>
<text text-anchor="middle" x="678" y="-959.1" font-family="Times,serif" font-size="8.00">0 of 610.58MB (96.75%)</text>
</a>
</g>
</g>
<!-- N6 -->
<g id="node6" class="node">
<title>N6</title>
<g id="a_node6"><a xlink:title="testing.(*B).runN (627.58MB)">
<polygon fill="#edd5d5" stroke="#b20000" points="736,-856 620,-856 620,-812 736,-812 736,-856"/>
<text text-anchor="middle" x="678" y="-845.6" font-family="Times,serif" font-size="8.00">testing</text>
<text text-anchor="middle" x="678" y="-836.6" font-family="Times,serif" font-size="8.00">(*B)</text>
<text text-anchor="middle" x="678" y="-827.6" font-family="Times,serif" font-size="8.00">runN</text>
<text text-anchor="middle" x="678" y="-818.6" font-family="Times,serif" font-size="8.00">0 of 627.58MB (99.44%)</text>
</a>
</g>
</g>
<!-- N3&#45;&gt;N6 -->
<g id="edge17" class="edge">
<title>N3&#45;&gt;N6</title>
<g id="a_edge17"><a xlink:title="testing.(*B).launch &#45;&gt; testing.(*B).runN (610.58MB)">
<path fill="none" stroke="#b20100" stroke-width="5" d="M678,-952.46C678,-929.59 678,-892.77 678,-866.45"/>
<polygon fill="#b20100" stroke="#b20100" stroke-width="5" points="682.38,-866.23 678,-856.23 673.63,-866.23 682.38,-866.23"/>
</a>
</g>
<g id="a_edge17&#45;label"><a xlink:title="testing.(*B).launch &#45;&gt; testing.(*B).runN (610.58MB)">
<text text-anchor="middle" x="717.5" y="-877.8" font-family="Times,serif" font-size="14.00"> 610.58MB</text>
</a>
</g>
</g>
<!-- N4 -->
<g id="node4" class="node">
<title>N4</title>
<g id="a_node4"><a xlink:title="strings.genSplit (129.50MB)">
<polygon fill="#edded5" stroke="#b24300" points="1282.5,-159 1083.5,-159 1083.5,-91 1282.5,-91 1282.5,-159"/>
<text text-anchor="middle" x="1183" y="-140.6" font-family="Times,serif" font-size="18.00">strings</text>
<text text-anchor="middle" x="1183" y="-120.6" font-family="Times,serif" font-size="18.00">genSplit</text>
<text text-anchor="middle" x="1183" y="-100.6" font-family="Times,serif" font-size="18.00">129.50MB (20.52%)</text>
</a>
</g>
</g>
<!-- NN4_0 -->
<g id="NN4_0" class="node">
<title>NN4_0</title>
<g id="a_NN4_0"><a xlink:title="129.50MB">
<polygon fill="#f8f8f8" stroke="black" points="1210,-36 1160,-36 1156,-32 1156,0 1206,0 1210,-4 1210,-36"/>
<polyline fill="none" stroke="black" points="1206,-32 1156,-32 "/>
<polyline fill="none" stroke="black" points="1206,-32 1206,0 "/>
<polyline fill="none" stroke="black" points="1206,-32 1210,-36 "/>
<text text-anchor="middle" x="1183" y="-16.1" font-family="Times,serif" font-size="8.00">32B</text>
</a>
</g>
</g>
<!-- N4&#45;&gt;NN4_0 -->
<g id="edge5" class="edge">
<title>N4&#45;&gt;NN4_0</title>
<g id="a_edge5"><a xlink:title="129.50MB">
<path fill="none" stroke="black" d="M1183,-90.78C1183,-76.46 1183,-59.92 1183,-46.33"/>
<polygon fill="black" stroke="black" points="1186.5,-46.16 1183,-36.16 1179.5,-46.16 1186.5,-46.16"/>
</a>
</g>
<g id="a_edge5&#45;label"><a xlink:title="129.50MB">
<text text-anchor="middle" x="1222.5" y="-57.8" font-family="Times,serif" font-size="14.00"> 129.50MB</text>
</a>
</g>
</g>
<!-- NN5_0 -->
<g id="NN5_0" class="node">
<title>NN5_0</title>
<g id="a_NN5_0"><a xlink:title="36MB">
<polygon fill="#f8f8f8" stroke="black" points="891,-269 841,-269 837,-265 837,-233 887,-233 891,-237 891,-269"/>
<polyline fill="none" stroke="black" points="887,-265 837,-265 "/>
<polyline fill="none" stroke="black" points="887,-265 887,-233 "/>
<polyline fill="none" stroke="black" points="887,-265 891,-269 "/>
<text text-anchor="middle" x="864" y="-249.1" font-family="Times,serif" font-size="8.00">24B</text>
</a>
</g>
</g>
<!-- N5&#45;&gt;NN5_0 -->
<g id="edge6" class="edge">
<title>N5&#45;&gt;NN5_0</title>
<g id="a_edge6"><a xlink:title="36MB">
<path fill="none" stroke="black" d="M915.96,-378.18C905.36,-361.95 892.75,-340.98 884,-321 878.11,-307.57 873.42,-291.92 870.06,-278.93"/>
<polygon fill="black" stroke="black" points="873.44,-278.04 867.65,-269.17 866.65,-279.71 873.44,-278.04"/>
</a>
</g>
<g id="a_edge6&#45;label"><a xlink:title="36MB">
<text text-anchor="middle" x="908" y="-302.3" font-family="Times,serif" font-size="14.00"> 36MB</text>
</a>
</g>
</g>
<!-- NN5_1 -->
<g id="NN5_1" class="node">
<title>NN5_1</title>
<g id="a_NN5_1"><a xlink:title="17MB">
<polygon fill="#f8f8f8" stroke="black" points="963,-269 913,-269 909,-265 909,-233 959,-233 963,-237 963,-269"/>
<polyline fill="none" stroke="black" points="959,-265 909,-265 "/>
<polyline fill="none" stroke="black" points="959,-265 959,-233 "/>
<polyline fill="none" stroke="black" points="959,-265 963,-269 "/>
<text text-anchor="middle" x="936" y="-249.1" font-family="Times,serif" font-size="8.00">32B</text>
</a>
</g>
</g>
<!-- N5&#45;&gt;NN5_1 -->
<g id="edge7" class="edge">
<title>N5&#45;&gt;NN5_1</title>
<g id="a_edge7"><a xlink:title="17MB">
<path fill="none" stroke="black" d="M936,-378.21C936,-349.92 936,-307.07 936,-279.31"/>
<polygon fill="black" stroke="black" points="939.5,-279.12 936,-269.12 932.5,-279.12 939.5,-279.12"/>
</a>
</g>
<g id="a_edge7&#45;label"><a xlink:title="17MB">
<text text-anchor="middle" x="960" y="-302.3" font-family="Times,serif" font-size="14.00"> 17MB</text>
</a>
</g>
</g>
<!-- NN5_2 -->
<g id="NN5_2" class="node">
<title>NN5_2</title>
<g id="a_NN5_2"><a xlink:title="4MB">
<polygon fill="#f8f8f8" stroke="black" points="1035,-269 985,-269 981,-265 981,-233 1031,-233 1035,-237 1035,-269"/>
<polyline fill="none" stroke="black" points="1031,-265 981,-265 "/>
<polyline fill="none" stroke="black" points="1031,-265 1031,-233 "/>
<polyline fill="none" stroke="black" points="1031,-265 1035,-269 "/>
<text text-anchor="middle" x="1008" y="-249.1" font-family="Times,serif" font-size="8.00">16B</text>
</a>
</g>
</g>
<!-- N5&#45;&gt;NN5_2 -->
<g id="edge8" class="edge">
<title>N5&#45;&gt;NN5_2</title>
<g id="a_edge8"><a xlink:title="4MB">
<path fill="none" stroke="black" d="M954.76,-378.38C964.92,-362.03 977.17,-340.89 986,-321 992,-307.49 997.12,-291.83 1000.92,-278.85"/>
<polygon fill="black" stroke="black" points="1004.32,-279.69 1003.67,-269.11 997.58,-277.79 1004.32,-279.69"/>
</a>
</g>
<g id="a_edge8&#45;label"><a xlink:title="4MB">
<text text-anchor="middle" x="1016.5" y="-302.3" font-family="Times,serif" font-size="14.00"> 4MB</text>
</a>
</g>
</g>
<!-- NN5_3 -->
<g id="NN5_3" class="node">
<title>NN5_3</title>
<g id="a_NN5_3"><a xlink:title="3.50MB">
<polygon fill="#f8f8f8" stroke="black" points="1107,-269 1057,-269 1053,-265 1053,-233 1103,-233 1107,-237 1107,-269"/>
<polyline fill="none" stroke="black" points="1103,-265 1053,-265 "/>
<polyline fill="none" stroke="black" points="1103,-265 1103,-233 "/>
<polyline fill="none" stroke="black" points="1103,-265 1107,-269 "/>
<text text-anchor="middle" x="1080" y="-249.1" font-family="Times,serif" font-size="8.00">48B</text>
</a>
</g>
</g>
<!-- N5&#45;&gt;NN5_3 -->
<g id="edge9" class="edge">
<title>N5&#45;&gt;NN5_3</title>
<g id="a_edge9"><a xlink:title="3.50MB">
<path fill="none" stroke="black" d="M977.23,-378.33C997.64,-362.86 1021.76,-342.55 1040,-321 1050.87,-308.16 1060.44,-291.96 1067.48,-278.49"/>
<polygon fill="black" stroke="black" points="1070.77,-279.75 1072.15,-269.25 1064.52,-276.6 1070.77,-279.75"/>
</a>
</g>
<g id="a_edge9&#45;label"><a xlink:title="3.50MB">
<text text-anchor="middle" x="1089.5" y="-302.3" font-family="Times,serif" font-size="14.00"> 3.50MB</text>
</a>
</g>
</g>
<!-- N11 -->
<g id="node11" class="node">
<title>N11</title>
<g id="a_node11"><a xlink:title="github.com/ice65537/otus&#45;go&#45;hw/hw10_program_optimization.TestGetDomainStat_Time_And_Memory.func1 (627.58MB)">
<polygon fill="#edd5d5" stroke="#b20000" points="765,-761 591,-761 591,-717 765,-717 765,-761"/>
<text text-anchor="middle" x="678" y="-750.6" font-family="Times,serif" font-size="8.00">hw10_program_optimization</text>
<text text-anchor="middle" x="678" y="-741.6" font-family="Times,serif" font-size="8.00">TestGetDomainStat_Time_And_Memory</text>
<text text-anchor="middle" x="678" y="-732.6" font-family="Times,serif" font-size="8.00">func1</text>
<text text-anchor="middle" x="678" y="-723.6" font-family="Times,serif" font-size="8.00">0 of 627.58MB (99.44%)</text>
</a>
</g>
</g>
<!-- N6&#45;&gt;N11 -->
<g id="edge14" class="edge">
<title>N6&#45;&gt;N11</title>
<g id="a_edge14"><a xlink:title="testing.(*B).runN &#45;&gt; github.com/ice65537/otus&#45;go&#45;hw/hw10_program_optimization.TestGetDomainStat_Time_And_Memory.func1 (627.58MB)">
<path fill="none" stroke="#b20000" stroke-width="5" d="M678,-811.9C678,-799.89 678,-784.62 678,-771.24"/>
<polygon fill="#b20000" stroke="#b20000" stroke-width="5" points="682.38,-771.02 678,-761.02 673.63,-771.02 682.38,-771.02"/>
</a>
</g>
<g id="a_edge14&#45;label"><a xlink:title="testing.(*B).runN &#45;&gt; github.com/ice65537/otus&#45;go&#45;hw/hw10_program_optimization.TestGetDomainStat_Time_And_Memory.func1 (627.58MB)">
<text text-anchor="middle" x="717.5" y="-782.8" font-family="Times,serif" font-size="14.00"> 627.58MB</text>
</a>
</g>
</g>
<!-- N7 -->
<g id="node7" class="node">
<title>N7</title>
<g id="a_node7"><a xlink:title="strings.(*Builder).grow (55.50MB)">
<polygon fill="#ede8e2" stroke="#b28c64" points="1451.5,-163 1300.5,-163 1300.5,-87 1451.5,-87 1451.5,-163"/>
<text text-anchor="middle" x="1376" y="-147" font-family="Times,serif" font-size="15.00">strings</text>
<text text-anchor="middle" x="1376" y="-130" font-family="Times,serif" font-size="15.00">(*Builder)</text>
<text text-anchor="middle" x="1376" y="-113" font-family="Times,serif" font-size="15.00">grow</text>
<text text-anchor="middle" x="1376" y="-96" font-family="Times,serif" font-size="15.00">55.50MB (8.79%)</text>
</a>
</g>
</g>
<!-- NN7_0 -->
<g id="NN7_0" class="node">
<title>NN7_0</title>
<g id="a_NN7_0"><a xlink:title="33MB">
<polygon fill="#f8f8f8" stroke="black" points="1321,-36 1271,-36 1267,-32 1267,0 1317,0 1321,-4 1321,-36"/>
<polyline fill="none" stroke="black" points="1317,-32 1267,-32 "/>
<polyline fill="none" stroke="black" points="1317,-32 1317,0 "/>
<polyline fill="none" stroke="black" points="1317,-32 1321,-36 "/>
<text text-anchor="middle" x="1294" y="-16.1" font-family="Times,serif" font-size="8.00">24B</text>
</a>
</g>
</g>
<!-- N7&#45;&gt;NN7_0 -->
<g id="edge10" class="edge">
<title>N7&#45;&gt;NN7_0</title>
<g id="a_edge10"><a xlink:title="33MB">
<path fill="none" stroke="black" d="M1330.01,-86.72C1324.55,-81.13 1319.37,-75.16 1315,-69 1310.02,-61.98 1305.92,-53.6 1302.7,-45.73"/>
<polygon fill="black" stroke="black" points="1305.9,-44.29 1299.1,-36.16 1299.35,-46.75 1305.9,-44.29"/>
</a>
</g>
<g id="a_edge10&#45;label"><a xlink:title="33MB">
<text text-anchor="middle" x="1339" y="-57.8" font-family="Times,serif" font-size="14.00"> 33MB</text>
</a>
</g>
</g>
<!-- NN7_1 -->
<g id="NN7_1" class="node">
<title>NN7_1</title>
<g id="a_NN7_1"><a xlink:title="15MB">
<polygon fill="#f8f8f8" stroke="black" points="1393,-36 1343,-36 1339,-32 1339,0 1389,0 1393,-4 1393,-36"/>
<polyline fill="none" stroke="black" points="1389,-32 1339,-32 "/>
<polyline fill="none" stroke="black" points="1389,-32 1389,0 "/>
<polyline fill="none" stroke="black" points="1389,-32 1393,-36 "/>
<text text-anchor="middle" x="1366" y="-16.1" font-family="Times,serif" font-size="8.00">32B</text>
</a>
</g>
</g>
<!-- N7&#45;&gt;NN7_1 -->
<g id="edge11" class="edge">
<title>N7&#45;&gt;NN7_1</title>
<g id="a_edge11"><a xlink:title="15MB">
<path fill="none" stroke="black" d="M1370.05,-86.79C1369.26,-80.85 1368.53,-74.76 1368,-69 1367.32,-61.68 1366.87,-53.73 1366.58,-46.37"/>
<polygon fill="black" stroke="black" points="1370.07,-46.03 1366.24,-36.15 1363.07,-46.26 1370.07,-46.03"/>
</a>
</g>
<g id="a_edge11&#45;label"><a xlink:title="15MB">
<text text-anchor="middle" x="1392" y="-57.8" font-family="Times,serif" font-size="14.00"> 15MB</text>
</a>
</g>
</g>
<!-- NN7_2 -->
<g id="NN7_2" class="node">
<title>NN7_2</title>
<g id="a_NN7_2"><a xlink:title="4MB">
<polygon fill="#f8f8f8" stroke="black" points="1465,-36 1415,-36 1411,-32 1411,0 1461,0 1465,-4 1465,-36"/>
<polyline fill="none" stroke="black" points="1461,-32 1411,-32 "/>
<polyline fill="none" stroke="black" points="1461,-32 1461,0 "/>
<polyline fill="none" stroke="black" points="1461,-32 1465,-36 "/>
<text text-anchor="middle" x="1438" y="-16.1" font-family="Times,serif" font-size="8.00">48B</text>
</a>
</g>
</g>
<!-- N7&#45;&gt;NN7_2 -->
<g id="edge12" class="edge">
<title>N7&#45;&gt;NN7_2</title>
<g id="a_edge12"><a xlink:title="4MB">
<path fill="none" stroke="black" d="M1404.65,-86.85C1408.67,-81.01 1412.59,-74.94 1416,-69 1420.25,-61.6 1424.24,-53.22 1427.61,-45.47"/>
<polygon fill="black" stroke="black" points="1430.9,-46.68 1431.54,-36.11 1424.44,-43.98 1430.9,-46.68"/>
</a>
</g>
<g id="a_edge12&#45;label"><a xlink:title="4MB">
<text text-anchor="middle" x="1442.5" y="-57.8" font-family="Times,serif" font-size="14.00"> 4MB</text>
</a>
</g>
</g>
<!-- NN7_3 -->
<g id="NN7_3" class="node">
<title>NN7_3</title>
<g id="a_NN7_3"><a xlink:title="3.50MB">
<polygon fill="#f8f8f8" stroke="black" points="1537,-36 1487,-36 1483,-32 1483,0 1533,0 1537,-4 1537,-36"/>
<polyline fill="none" stroke="black" points="1533,-32 1483,-32 "/>
<polyline fill="none" stroke="black" points="1533,-32 1533,0 "/>
<polyline fill="none" stroke="black" points="1533,-32 1537,-36 "/>
<text text-anchor="middle" x="1510" y="-16.1" font-family="Times,serif" font-size="8.00">16B</text>
</a>
</g>
</g>
<!-- N7&#45;&gt;NN7_3 -->
<g id="edge13" class="edge">
<title>N7&#45;&gt;NN7_3</title>
<g id="a_edge13"><a xlink:title="3.50MB">
<path fill="none" stroke="black" d="M1442.01,-86.87C1450.36,-81.26 1458.57,-75.24 1466,-69 1474.72,-61.67 1483.25,-52.58 1490.43,-44.17"/>
<polygon fill="black" stroke="black" points="1493.19,-46.32 1496.88,-36.39 1487.8,-41.85 1493.19,-46.32"/>
</a>
</g>
<g id="a_edge13&#45;label"><a xlink:title="3.50MB">
<text text-anchor="middle" x="1510.5" y="-57.8" font-family="Times,serif" font-size="14.00"> 3.50MB</text>
</a>
</g>
</g>
<!-- N8 -->
<g id="node8" class="node">
<title>N8</title>
<g id="a_node8"><a xlink:title="testing.(*B).run1.func1 (17MB)">
<polygon fill="#edece9" stroke="#b2aa9a" points="846,-1001 754,-1001 754,-948 846,-948 846,-1001"/>
<text text-anchor="middle" x="800" y="-990.6" font-family="Times,serif" font-size="8.00">testing</text>
<text text-anchor="middle" x="800" y="-981.6" font-family="Times,serif" font-size="8.00">(*B)</text>
<text text-anchor="middle" x="800" y="-972.6" font-family="Times,serif" font-size="8.00">run1</text>
<text text-anchor="middle" x="800" y="-963.6" font-family="Times,serif" font-size="8.00">func1</text>
<text text-anchor="middle" x="800" y="-954.6" font-family="Times,serif" font-size="8.00">0 of 17MB (2.69%)</text>
</a>
</g>
</g>
<!-- N8&#45;&gt;N6 -->
<g id="edge26" class="edge">
<title>N8&#45;&gt;N6</title>
<g id="a_edge26"><a xlink:title="testing.(*B).run1.func1 &#45;&gt; testing.(*B).runN (17MB)">
<path fill="none" stroke="#b2aa9a" d="M795.46,-947.77C790.41,-925.8 780.28,-894.59 761,-874 756.32,-869 750.87,-864.58 745.04,-860.69"/>
<polygon fill="#b2aa9a" stroke="#b2aa9a" points="746.64,-857.56 736.28,-855.35 743,-863.54 746.64,-857.56"/>
</a>
</g>
<g id="a_edge26&#45;label"><a xlink:title="testing.(*B).run1.func1 &#45;&gt; testing.(*B).runN (17MB)">
<text text-anchor="middle" x="796" y="-877.8" font-family="Times,serif" font-size="14.00"> 17MB</text>
</a>
</g>
</g>
<!-- N13 -->
<g id="node13" class="node">
<title>N13</title>
<g id="a_node13"><a xlink:title="strings.Split (129.50MB)">
<polygon fill="#edded5" stroke="#b24300" points="1241,-269 1125,-269 1125,-233 1241,-233 1241,-269"/>
<text text-anchor="middle" x="1183" y="-258.1" font-family="Times,serif" font-size="8.00">strings</text>
<text text-anchor="middle" x="1183" y="-249.1" font-family="Times,serif" font-size="8.00">Split</text>
<text text-anchor="middle" x="1183" y="-240.1" font-family="Times,serif" font-size="8.00">0 of 129.50MB (20.52%)</text>
</a>
</g>
</g>
<!-- N9&#45;&gt;N13 -->
<g id="edge20" class="edge">
<title>N9&#45;&gt;N13</title>
<g id="a_edge20"><a xlink:title="github.com/ice65537/otus&#45;go&#45;hw/hw10_program_optimization.checkDomain &#45;&gt; strings.Split (129.50MB)">
<path fill="none" stroke="#b24300" stroke-width="2" d="M1143.89,-383.79C1152.23,-355.69 1166.25,-308.45 1175.04,-278.81"/>
<polygon fill="#b24300" stroke="#b24300" stroke-width="2" points="1178.43,-279.71 1177.92,-269.13 1171.72,-277.72 1178.43,-279.71"/>
</a>
</g>
<g id="a_edge20&#45;label"><a xlink:title="github.com/ice65537/otus&#45;go&#45;hw/hw10_program_optimization.checkDomain &#45;&gt; strings.Split (129.50MB)">
<text text-anchor="middle" x="1209.5" y="-309.8" font-family="Times,serif" font-size="14.00"> 129.50MB</text>
<text text-anchor="middle" x="1209.5" y="-294.8" font-family="Times,serif" font-size="14.00"> (inline)</text>
</a>
</g>
</g>
<!-- N10 -->
<g id="node10" class="node">
<title>N10</title>
<g id="a_node10"><a xlink:title="github.com/ice65537/otus&#45;go&#45;hw/hw10_program_optimization.GetDomainStat (627.08MB)">
<polygon fill="#edd5d5" stroke="#b20000" points="743,-651 613,-651 613,-615 743,-615 743,-651"/>
<text text-anchor="middle" x="678" y="-640.1" font-family="Times,serif" font-size="8.00">hw10_program_optimization</text>
<text text-anchor="middle" x="678" y="-631.1" font-family="Times,serif" font-size="8.00">GetDomainStat</text>
<text text-anchor="middle" x="678" y="-622.1" font-family="Times,serif" font-size="8.00">0 of 627.08MB (99.37%)</text>
</a>
</g>
</g>
<!-- N10&#45;&gt;N1 -->
<g id="edge15" class="edge">
<title>N10&#45;&gt;N1</title>
<g id="a_edge15"><a xlink:title="github.com/ice65537/otus&#45;go&#45;hw/hw10_program_optimization.GetDomainStat &#45;&gt; github.com/ice65537/otus&#45;go&#45;hw/hw10_program_optimization.parseRecords (627.08MB)">
<path fill="none" stroke="#b20000" stroke-width="5" d="M678,-614.8C678,-603.16 678,-587.55 678,-574.24"/>
<polygon fill="#b20000" stroke="#b20000" stroke-width="5" points="682.38,-574.18 678,-564.18 673.63,-574.18 682.38,-574.18"/>
</a>
</g>
<g id="a_edge15&#45;label"><a xlink:title="github.com/ice65537/otus&#45;go&#45;hw/hw10_program_optimization.GetDomainStat &#45;&gt; github.com/ice65537/otus&#45;go&#45;hw/hw10_program_optimization.parseRecords (627.08MB)">
<text text-anchor="middle" x="717.5" y="-585.8" font-family="Times,serif" font-size="14.00"> 627.08MB</text>
</a>
</g>
</g>
<!-- N11&#45;&gt;N10 -->
<g id="edge16" class="edge">
<title>N11&#45;&gt;N10</title>
<g id="a_edge16"><a xlink:title="github.com/ice65537/otus&#45;go&#45;hw/hw10_program_optimization.TestGetDomainStat_Time_And_Memory.func1 &#45;&gt; github.com/ice65537/otus&#45;go&#45;hw/hw10_program_optimization.GetDomainStat (627.08MB)">
<path fill="none" stroke="#b20000" stroke-width="5" d="M678,-716.95C678,-700.93 678,-678.74 678,-661.34"/>
<polygon fill="#b20000" stroke="#b20000" stroke-width="5" points="682.38,-661.23 678,-651.23 673.63,-661.23 682.38,-661.23"/>
</a>
</g>
<g id="a_edge16&#45;label"><a xlink:title="github.com/ice65537/otus&#45;go&#45;hw/hw10_program_optimization.TestGetDomainStat_Time_And_Memory.func1 &#45;&gt; github.com/ice65537/otus&#45;go&#45;hw/hw10_program_optimization.GetDomainStat (627.08MB)">
<text text-anchor="middle" x="717.5" y="-687.8" font-family="Times,serif" font-size="14.00"> 627.08MB</text>
<text text-anchor="middle" x="717.5" y="-672.8" font-family="Times,serif" font-size="14.00"> (inline)</text>
</a>
</g>
</g>
<!-- N12 -->
<g id="node12" class="node">
<title>N12</title>
<g id="a_node12"><a xlink:title="strings.(*Builder).Grow (55.50MB)">
<polygon fill="#ede8e2" stroke="#b28c64" points="1396.5,-273 1291.5,-273 1291.5,-229 1396.5,-229 1396.5,-273"/>
<text text-anchor="middle" x="1344" y="-262.6" font-family="Times,serif" font-size="8.00">strings</text>
<text text-anchor="middle" x="1344" y="-253.6" font-family="Times,serif" font-size="8.00">(*Builder)</text>
<text text-anchor="middle" x="1344" y="-244.6" font-family="Times,serif" font-size="8.00">Grow</text>
<text text-anchor="middle" x="1344" y="-235.6" font-family="Times,serif" font-size="8.00">0 of 55.50MB (8.79%)</text>
</a>
</g>
</g>
<!-- N12&#45;&gt;N7 -->
<g id="edge24" class="edge">
<title>N12&#45;&gt;N7</title>
<g id="a_edge24"><a xlink:title="strings.(*Builder).Grow &#45;&gt; strings.(*Builder).grow (55.50MB)">
<path fill="none" stroke="#b28c64" d="M1349.43,-228.97C1353.38,-213.67 1358.88,-192.34 1363.85,-173.07"/>
<polygon fill="#b28c64" stroke="#b28c64" points="1367.28,-173.78 1366.39,-163.22 1360.51,-172.03 1367.28,-173.78"/>
</a>
</g>
<g id="a_edge24&#45;label"><a xlink:title="strings.(*Builder).Grow &#45;&gt; strings.(*Builder).grow (55.50MB)">
<text text-anchor="middle" x="1395" y="-199.8" font-family="Times,serif" font-size="14.00"> 55.50MB</text>
<text text-anchor="middle" x="1395" y="-184.8" font-family="Times,serif" font-size="14.00"> (inline)</text>
</a>
</g>
</g>
<!-- N13&#45;&gt;N4 -->
<g id="edge21" class="edge">
<title>N13&#45;&gt;N4</title>
<g id="a_edge21"><a xlink:title="strings.Split &#45;&gt; strings.genSplit (129.50MB)">
<path fill="none" stroke="#b24300" stroke-width="2" d="M1183,-232.76C1183,-216.44 1183,-191.27 1183,-169.47"/>
<polygon fill="#b24300" stroke="#b24300" stroke-width="2" points="1186.5,-169.41 1183,-159.41 1179.5,-169.41 1186.5,-169.41"/>
</a>
</g>
<g id="a_edge21&#45;label"><a xlink:title="strings.Split &#45;&gt; strings.genSplit (129.50MB)">
<text text-anchor="middle" x="1222.5" y="-192.3" font-family="Times,serif" font-size="14.00"> 129.50MB</text>
</a>
</g>
</g>
<!-- N14&#45;&gt;N12 -->
<g id="edge25" class="edge">
<title>N14&#45;&gt;N12</title>
<g id="a_edge25"><a xlink:title="strings.ToLower &#45;&gt; strings.(*Builder).Grow (55.50MB)">
<path fill="none" stroke="#b28c64" d="M1316.44,-389.82C1321.56,-364.18 1331.3,-315.51 1337.72,-283.4"/>
<polygon fill="#b28c64" stroke="#b28c64" points="1341.23,-283.7 1339.76,-273.21 1334.36,-282.33 1341.23,-283.7"/>
</a>
</g>
<g id="a_edge25&#45;label"><a xlink:title="strings.ToLower &#45;&gt; strings.(*Builder).Grow (55.50MB)">
<text text-anchor="middle" x="1370" y="-309.8" font-family="Times,serif" font-size="14.00"> 55.50MB</text>
<text text-anchor="middle" x="1370" y="-294.8" font-family="Times,serif" font-size="14.00"> (inline)</text>
</a>
</g>
</g>
</g>
</g></svg>
